<?xml version="1.0" standalone="no"?>
<!DOCTYPE svg PUBLIC "-//W3C//DTD SVG 20010904//EN"
 "http://www.w3.org/TR/2001/REC-SVG-20010904/DTD/svg10.dtd">
<svg version="1.0" xmlns="http://www.w3.org/2000/svg"
 width="50px" height="50px" viewBox="0 0 512.000000 512.000000"
 preserveAspectRatio="xMidYMid meet">

<g transform="translate(0.000000,512.000000) scale(0.100000,-0.100000)"
fill="#000000" stroke="none">
<path d="M321 5104 c-210 -56 -350 -269 -314 -477 25 -148 -35 -81 1002 -1119
l946 -948 -946 -947 c-1037 -1039 -977 -972 -1002 -1120 -47 -275 211 -533
486 -486 148 25 81 -35 1119 1002 l948 946 948 -946 c1038 -1037 971 -977
1119 -1002 275 -47 533 211 486 486 -25 148 35 81 -1002 1120 l-946 947 946
948 c1037 1038 977 971 1002 1119 47 275 -211 533 -486 486 -148 -25 -81 35
-1120 -1002 l-947 -946 -943 942 c-739 739 -953 946 -992 966 -95 47 -204 58
-304 31z"/>
</g>
</svg>
