<?xml version="1.0" standalone="no"?>
<!DOCTYPE svg PUBLIC "-//W3C//DTD SVG 20010904//EN"
 "http://www.w3.org/TR/2001/REC-SVG-20010904/DTD/svg10.dtd">
<svg version="1.0" xmlns="http://www.w3.org/2000/svg"
 width="512.000000pt" height="512.000000pt" viewBox="0 0 512.000000 512.000000"
 preserveAspectRatio="xMidYMid meet">

<g transform="translate(0.000000,512.000000) scale(0.100000,-0.100000)"
fill="#000000" stroke="none">
<path d="M2330 5110 c-494 -48 -950 -230 -1350 -538 -195 -150 -448 -432 -594
-662 -63 -99 -186 -351 -230 -471 -49 -134 -102 -340 -128 -499 -31 -195 -31
-565 0 -760 45 -276 116 -498 237 -745 132 -269 269 -460 489 -681 221 -220
412 -357 681 -489 247 -121 469 -192 745 -237 195 -31 565 -31 760 0 276 45
498 116 745 237 269 132 460 269 681 489 220 221 357 412 489 681 88 179 132
296 180 476 63 240 78 371 78 649 0 278 -15 409 -78 649 -48 180 -92 297 -180
476 -132 269 -269 460 -489 681 -221 220 -412 357 -681 489 -246 121 -474 193
-740 235 -147 23 -475 34 -615 20z m481 -686 c214 -29 411 -91 597 -185 94
-49 242 -139 242 -149 0 -9 -2619 -2624 -2623 -2620 -25 27 -118 185 -161 274
-91 187 -149 387 -177 609 -14 121 -7 395 15 520 94 542 422 1020 896 1304
205 123 460 214 685 243 50 6 97 13 105 15 50 10 325 3 421 -11z m1354 -881
c104 -164 194 -396 242 -620 24 -116 27 -148 27 -348 1 -166 -3 -245 -16 -320
-128 -733 -653 -1313 -1368 -1512 -169 -47 -270 -58 -505 -57 -200 0 -232 3
-348 27 -148 31 -304 82 -421 136 -82 38 -202 105 -241 135 -19 14 37 72 1280
1316 715 715 1303 1300 1307 1300 3 0 23 -26 43 -57z"/>
</g>
</svg>
