<?xml version="1.0" standalone="no"?>
<!DOCTYPE svg PUBLIC "-//W3C//DTD SVG 20010904//EN"
 "http://www.w3.org/TR/2001/REC-SVG-20010904/DTD/svg10.dtd">
<svg version="1.0" xmlns="http://www.w3.org/2000/svg"
 width="512.000000pt" height="512.000000pt" viewBox="0 0 512.000000 512.000000"
 preserveAspectRatio="xMidYMid meet">

<g transform="translate(0.000000,512.000000) scale(0.100000,-0.100000)"
fill="#000000" stroke="none">
<path d="M2365 5114 c-266 -29 -428 -61 -617 -125 -759 -253 -1364 -858 -1617
-1617 -199 -594 -168 -1275 84 -1844 361 -815 1112 -1381 1995 -1505 172 -24
528 -24 700 0 820 115 1514 600 1913 1337 323 598 386 1355 167 2011 -308 919
-1115 1592 -2070 1724 -111 15 -473 28 -555 19z m514 -768 c304 -57 575 -181
814 -371 348 -278 579 -671 659 -1125 20 -113 17 -490 -5 -605 -84 -443 -312
-827 -654 -1100 -244 -194 -528 -321 -843 -377 -113 -20 -490 -17 -605 5 -758
143 -1329 713 -1472 1470 -24 130 -25 504 0 632 101 535 412 979 875 1252 213
126 423 195 717 237 70 10 433 -3 514 -18z"/>
<path d="M1835 3821 c-50 -23 -92 -65 -111 -109 -21 -51 -21 -2253 0 -2304 40
-94 157 -149 252 -118 22 7 455 258 964 557 636 373 935 554 957 579 63 72 63
196 0 268 -22 25 -320 205 -952 577 -506 297 -935 547 -954 555 -46 19 -108
17 -156 -5z"/>
</g>
</svg>
