<?xml version="1.0" standalone="no"?>
<!DOCTYPE svg PUBLIC "-//W3C//DTD SVG 20010904//EN"
 "http://www.w3.org/TR/2001/REC-SVG-20010904/DTD/svg10.dtd">
<svg version="1.0" xmlns="http://www.w3.org/2000/svg"
 width="512.000000pt" height="512.000000pt" viewBox="0 0 512.000000 512.000000"
 preserveAspectRatio="xMidYMid meet">

<g transform="translate(0.000000,512.000000) scale(0.100000,-0.100000)"
fill="#000000" stroke="none">
<path d="M2250 4466 c-19 -6 -43 -16 -54 -22 -10 -6 -223 -216 -475 -467
l-456 -456 -545 -3 -545 -3 -50 -28 c-50 -28 -105 -91 -105 -121 0 -8 -4 -18
-10 -21 -14 -9 -14 -1561 0 -1570 5 -3 10 -13 10 -21 0 -30 55 -93 105 -121
l50 -28 545 -3 544 -3 451 -451 c247 -248 461 -458 475 -467 112 -74 260 -40
335 80 l25 39 0 1760 0 1760 -25 39 c-61 97 -173 141 -275 107z"/>
<path d="M3524 3500 c-23 -12 -100 -80 -176 -158 -145 -147 -151 -159 -140
-247 4 -37 26 -61 250 -287 l246 -248 -246 -247 c-265 -268 -265 -268 -251
-360 5 -32 28 -60 152 -185 163 -164 191 -179 274 -157 36 9 77 46 282 250
164 163 244 236 253 230 7 -4 119 -114 250 -243 215 -214 241 -236 278 -243
83 -13 110 3 260 155 77 78 140 150 142 160 2 11 8 20 13 20 5 0 9 23 9 50 0
28 -4 50 -10 50 -5 0 -10 8 -10 17 0 9 -109 126 -242 260 l-242 243 242 243
c133 134 242 251 242 260 0 9 5 17 10 17 6 0 10 23 10 50 0 28 -4 50 -10 50
-5 0 -10 8 -10 18 0 10 -63 80 -143 159 -161 159 -192 177 -269 154 -36 -11
-83 -53 -286 -254 l-242 -241 -238 236 c-280 280 -304 294 -398 248z"/>
</g>
</svg>
