<?xml version="1.0" standalone="no"?>
<!DOCTYPE svg PUBLIC "-//W3C//DTD SVG 20010904//EN"
 "http://www.w3.org/TR/2001/REC-SVG-20010904/DTD/svg10.dtd">
<svg version="1.0" xmlns="http://www.w3.org/2000/svg"
 width="512.000000pt" height="512.000000pt" viewBox="0 0 512.000000 512.000000"
 preserveAspectRatio="xMidYMid meet">

<g transform="translate(0.000000,512.000000) scale(0.100000,-0.100000)"
fill="#000000" stroke="none">
<path d="M2306 5111 c-3 -4 -38 -11 -78 -15 -78 -6 -111 -13 -253 -46 -49 -12
-106 -25 -125 -30 -37 -9 -95 -28 -120 -40 -9 -4 -30 -11 -48 -14 -17 -4 -34
-12 -37 -17 -4 -5 -13 -9 -21 -9 -18 0 -91 -33 -226 -100 -476 -241 -877 -642
-1118 -1118 -67 -135 -100 -208 -100 -226 0 -8 -4 -17 -9 -21 -5 -3 -13 -20
-17 -37 -3 -18 -10 -39 -14 -48 -5 -8 -16 -42 -25 -75 -10 -33 -21 -71 -26
-85 -7 -24 -27 -112 -48 -215 -6 -27 -13 -83 -17 -123 -4 -40 -11 -75 -15 -78
-12 -7 -12 -501 0 -508 4 -3 11 -38 15 -78 4 -40 11 -95 17 -123 21 -103 41
-191 48 -215 5 -14 16 -52 26 -85 9 -33 20 -67 25 -75 4 -9 11 -30 14 -48 4
-17 12 -34 17 -37 5 -4 9 -13 9 -21 0 -23 81 -196 150 -319 106 -191 262 -396
420 -555 159 -158 364 -314 555 -420 123 -69 296 -150 319 -150 8 0 17 -4 21
-9 3 -5 20 -13 37 -17 18 -3 39 -10 48 -14 25 -12 83 -31 120 -40 19 -5 62
-16 95 -25 189 -50 353 -68 615 -68 240 0 255 1 495 41 28 5 70 14 95 21 25 7
63 17 85 23 49 13 202 63 241 79 96 39 159 66 234 104 36 17 81 41 100 53 19
12 49 29 67 37 18 9 37 23 44 31 6 8 16 14 22 14 28 0 313 228 426 341 136
136 348 409 394 509 4 8 17 31 29 50 11 19 36 64 53 100 38 75 65 138 104 234
16 39 66 192 79 241 29 111 42 164 47 200 4 22 14 85 22 140 23 141 22 542 0
680 -34 203 -43 244 -82 375 -9 30 -19 67 -22 83 -3 15 -9 30 -14 33 -5 3 -9
13 -9 22 0 9 -7 30 -15 46 -8 15 -15 33 -15 38 0 18 -90 206 -150 313 -222
398 -578 755 -975 975 -124 69 -296 150 -319 150 -8 0 -17 4 -21 9 -3 5 -20
13 -37 17 -18 3 -39 10 -48 14 -8 5 -42 16 -75 25 -33 10 -71 21 -85 26 -24 7
-112 27 -215 48 -27 6 -83 13 -123 17 -40 4 -75 11 -78 15 -7 12 -501 12 -508
0z m516 -771 c308 -61 461 -119 693 -261 61 -37 119 -76 130 -86 11 -10 40
-35 65 -55 142 -117 264 -256 366 -418 139 -221 215 -424 264 -704 13 -77 13
-449 0 -518 -35 -175 -60 -266 -112 -408 -18 -50 -127 -262 -144 -281 -8 -8
-14 -19 -14 -23 0 -6 -77 -115 -89 -126 -3 -3 -24 -27 -46 -55 -50 -64 -156
-170 -220 -220 -27 -22 -52 -43 -55 -46 -11 -12 -120 -89 -126 -89 -4 0 -15
-6 -23 -14 -19 -17 -231 -126 -281 -144 -147 -54 -265 -86 -414 -112 -77 -13
-449 -13 -518 0 -175 35 -266 60 -408 112 -50 18 -262 127 -281 144 -8 8 -19
14 -23 14 -7 0 -98 65 -140 101 -118 97 -173 149 -221 206 -31 38 -65 77 -74
89 -34 40 -101 133 -101 140 0 4 -6 15 -14 23 -17 19 -126 231 -144 281 -52
142 -77 233 -112 408 -13 69 -13 455 0 524 35 175 60 266 112 408 18 50 127
262 144 281 8 8 14 19 14 23 0 7 67 100 101 140 9 12 43 51 74 89 48 57 103
109 221 206 42 36 133 101 140 101 4 0 15 6 23 14 19 17 231 126 281 144 139
51 228 76 400 111 63 12 468 13 532 1z"/>
<path d="M1819 3509 c-14 -5 -34 -24 -43 -42 -16 -29 -17 -102 -14 -905 l3
-874 30 -24 c30 -24 33 -24 246 -24 214 0 216 0 242 24 14 13 28 39 32 57 3
19 4 418 3 886 l-3 853 -28 27 -27 28 -208 2 c-117 1 -218 -2 -233 -8z"/>
<path d="M2800 3509 c-14 -5 -34 -22 -43 -38 -16 -27 -17 -97 -17 -899 l0
-870 31 -31 31 -31 218 0 218 0 31 31 31 31 0 872 0 872 -29 34 -29 35 -208 2
c-115 1 -220 -2 -234 -8z"/>
</g>
</svg>
