<?xml version="1.0" standalone="no"?>
<!DOCTYPE svg PUBLIC "-//W3C//DTD SVG 20010904//EN"
 "http://www.w3.org/TR/2001/REC-SVG-20010904/DTD/svg10.dtd">
<svg version="1.0" xmlns="http://www.w3.org/2000/svg"
 width="100.000000pt" height="100.000000pt" viewBox="0 0 100.000000 100.000000"
 preserveAspectRatio="xMidYMid meet">

<g transform="translate(0.000000,100.000000) scale(0.100000,-0.100000)"
fill="#000000" stroke="none">
<path d="M80 790 c-11 -11 -20 -29 -20 -40 0 -11 9 -29 20 -40 19 -19 33 -20
420 -20 387 0 401 1 420 20 25 25 25 55 0 80 -19 19 -33 20 -420 20 -387 0
-401 -1 -420 -20z"/>
<path d="M80 540 c-11 -11 -20 -29 -20 -40 0 -11 9 -29 20 -40 19 -19 33 -20
420 -20 387 0 401 1 420 20 25 25 25 55 0 80 -19 19 -33 20 -420 20 -387 0
-401 -1 -420 -20z"/>
<path d="M80 290 c-11 -11 -20 -29 -20 -40 0 -11 9 -29 20 -40 19 -19 33 -20
420 -20 387 0 401 1 420 20 25 25 25 55 0 80 -19 19 -33 20 -420 20 -387 0
-401 -1 -420 -20z"/>
</g>
</svg>
